<svg viewBox="0 0 7.77002 19.6699" xmlns="http://www.w3.org/2000/svg" xmlns:xlink="http://www.w3.org/1999/xlink" width="7.770020" height="19.669922" fill="none" customFrame="#000000">
	<path id="Vector" d="M6.93 0.0700003C7.14 0.0700003 7.35 0.0700003 7.77 0.0700003L7.77 3.22C7.56 3.22 7.14 3.22 6.72 3.22C6.3 3.22 5.88 3.22 5.67 3.43C5.46 3.64 5.45999 3.85 5.45999 4.34C5.45999 4.76 5.45999 5.04 5.45999 5.46L7.77 5.46L7.77 8.12L5.45999 8.12L5.45999 19.67L1.89001 19.67L1.89001 8.05L0 8.05L0 5.39L1.89001 5.39L1.89001 4.48C1.89001 2.94 2.1 1.82 2.52 1.33C3.15 0.42 4.41 0 6.3 0C6.51 0.07 6.72 0.0700003 6.93 0.0700003Z" fill="rgb(174,19,50)" fill-rule="nonzero" />
</svg>
