<svg viewBox="0 0 22.4 22.3999" xmlns="http://www.w3.org/2000/svg" xmlns:xlink="http://www.w3.org/1999/xlink" width="22.400024" height="22.399902" fill="none" customFrame="#000000">
	<path id="Vector" d="M22.3279 6.61122C22.3142 5.67116 22.14 4.73855 21.8067 3.85934C21.2233 2.35798 20.0354 1.1708 18.5315 0.589622C17.662 0.263023 16.7428 0.0879254 15.8124 0.0680562C14.6157 0.0146578 14.2363 -0.000244141 11.1988 -0.000244141C8.16117 -0.000244141 7.77184 -0.000244059 6.58392 0.0680562C5.65473 0.0879254 4.7355 0.263023 3.86602 0.589622C2.36215 1.1708 1.17299 2.35798 0.590848 3.85934C0.263705 4.72738 0.0870724 5.64508 0.0696579 6.57273C0.0161706 7.7686 0 8.14736 0 11.1799C0 14.2124 -7.45058e-09 14.5999 0.0696579 15.7871C0.0883163 16.7159 0.263705 17.6324 0.590848 18.5029C1.17423 20.003 2.36215 21.1902 3.86726 21.7714C4.73301 22.1092 5.65224 22.3004 6.58516 22.3302C7.78303 22.3836 8.16242 22.3998 11.2 22.3998C14.2376 22.3998 14.6269 22.3998 15.8148 22.3302C16.744 22.3116 17.6633 22.1365 18.534 21.8099C20.0379 21.2275 21.2258 20.0403 21.8092 18.5402C22.1363 17.6709 22.3117 16.7544 22.3303 15.8243C22.3838 14.6297 22.4 14.2509 22.4 11.2171C22.3975 8.18461 22.3975 7.79965 22.3279 6.61122ZM11.1913 16.9146C8.01439 16.9146 5.44078 14.3453 5.44078 11.1737C5.44078 8.00206 8.01439 5.43273 11.1913 5.43273C14.3657 5.43273 16.9418 8.00206 16.9418 11.1737C16.9418 14.3453 14.3657 16.9146 11.1913 16.9146ZM17.1707 6.55906C16.4281 6.55906 15.8298 5.96051 15.8298 5.22038C15.8298 4.48025 16.4281 3.88169 17.1707 3.88169C17.9108 3.88169 18.5104 4.48025 18.5104 5.22038C18.5104 5.96051 17.9108 6.55906 17.1707 6.55906Z" fill="rgb(174,19,50)" fill-rule="nonzero" />
</svg>
