<svg viewBox="0 0 24.64 17.4299" xmlns="http://www.w3.org/2000/svg" xmlns:xlink="http://www.w3.org/1999/xlink" width="24.640015" height="17.429932" fill="none" customFrame="#000000">
	<path id="Vector" d="M19.5999 0.14C18.4099 0.0699999 15.9599 0 12.2499 0L11.7599 0C8.18993 0 5.80996 0.0699998 4.61996 0.21C3.00996 0.35 1.88993 0.77 1.25993 1.33C0.69993 1.82 0.279947 2.73 0.139947 3.92C0.0699475 4.69 -6.10352e-05 6.3 -6.10352e-05 8.75L-6.10352e-05 9.1C-6.10352e-05 11.41 0.0699304 13.02 0.20993 13.79C0.41993 14.91 0.769965 15.75 1.46996 16.24C2.16996 16.8 3.35995 17.15 5.03995 17.29C6.22995 17.36 8.67995 17.43 12.3899 17.43L12.88 17.43C16.45 17.43 18.83 17.36 20.02 17.22C21.63 17.08 22.75 16.66 23.38 16.1C23.94 15.61 24.3599 14.7 24.4999 13.51C24.5699 12.74 24.6399 11.13 24.6399 8.68L24.6399 8.33C24.6399 6.02 24.57 4.41 24.43 3.64C24.22 2.52 23.87 1.68 23.17 1.19C22.47 0.63 21.2799 0.28 19.5999 0.14ZM16.87 8.75L9.16996 13.37L9.16996 4.13L16.87 8.75Z" fill="rgb(174,19,50)" fill-rule="evenodd" />
</svg>
