<svg width="19" height="24" viewBox="0 0 19 24" fill="none" xmlns="http://www.w3.org/2000/svg">
<path d="M17.5 5.83333H14V4.66667C14 3.42899 13.5083 2.242 12.6332 1.36684C11.758 0.491665 10.571 0 9.33333 0C8.09565 0 6.90867 0.491665 6.0335 1.36684C5.15833 2.242 4.66666 3.42899 4.66666 4.66667V5.83333H1.16667C0.857247 5.83333 0.560501 5.95625 0.341709 6.17504C0.122916 6.39384 0 6.69058 0 7V19.8333C0 20.7616 0.368749 21.6518 1.02513 22.3082C1.6815 22.9646 2.57174 23.3333 3.5 23.3333H15.1667C16.0949 23.3333 16.9852 22.9646 17.6415 22.3082C18.2979 21.6518 18.6667 20.7616 18.6667 19.8333V7C18.6667 6.69058 18.5437 6.39384 18.3249 6.17504C18.1062 5.95625 17.8094 5.83333 17.5 5.83333ZM7 4.66667C7 4.04783 7.24583 3.45434 7.68341 3.01675C8.121 2.57917 8.71449 2.33333 9.33333 2.33333C9.95217 2.33333 10.5457 2.57917 10.9832 3.01675C11.4208 3.45434 11.6667 4.04783 11.6667 4.66667V5.83333H7V4.66667ZM16.3333 19.8333C16.3333 20.1428 16.2104 20.4395 15.9916 20.6583C15.7728 20.8771 15.4761 21 15.1667 21H3.5C3.19058 21 2.89383 20.8771 2.67504 20.6583C2.45625 20.4395 2.33333 20.1428 2.33333 19.8333V8.16667H4.66666V9.33333C4.66666 9.64275 4.78958 9.9395 5.00837 10.1583C5.22717 10.3771 5.52391 10.5 5.83333 10.5C6.14275 10.5 6.4395 10.3771 6.65829 10.1583C6.87708 9.9395 7 9.64275 7 9.33333V8.16667H11.6667V9.33333C11.6667 9.64275 11.7896 9.9395 12.0084 10.1583C12.2272 10.3771 12.5239 10.5 12.8333 10.5C13.1427 10.5 13.4395 10.3771 13.6583 10.1583C13.8771 9.9395 14 9.64275 14 9.33333V8.16667H16.3333V19.8333Z" fill="#AE1332"/>
</svg>
