<!-- Generated by IcoMoon.io -->
<svg version="1.1" xmlns="http://www.w3.org/2000/svg" width="45" height="32" viewBox="0 0 45 32">
<path fill="#ae1332" d="M35.984 0.257c-2.185-0.129-6.683-0.257-13.494-0.257h-0.9c-6.554 0-10.924 0.129-13.108 0.386-2.956 0.257-5.012 1.028-6.169 2.056-1.028 0.9-1.799 2.57-2.056 4.755-0.129 1.414-0.257 4.37-0.257 8.867v0.643c0 4.241 0.129 7.197 0.386 8.61 0.386 2.056 1.028 3.598 2.313 4.498 1.285 1.028 3.47 1.671 6.554 1.928 2.185 0.128 6.683 0.257 13.494 0.257h0.9c6.554 0 10.924-0.128 13.109-0.386 2.956-0.257 5.012-1.028 6.169-2.056 1.028-0.9 1.799-2.57 2.056-4.755 0.129-1.414 0.257-4.37 0.257-8.867v-0.643c0-4.241-0.128-7.197-0.385-8.61-0.386-2.056-1.028-3.598-2.313-4.498-1.285-1.028-3.47-1.671-6.554-1.928zM30.972 16.064l-14.137 8.482v-16.964l14.137 8.482z"></path>
</svg>
