<svg aria-hidden="true" style="position: absolute; width: 0; height: 0; overflow: hidden;" version="1.1" xmlns="http://www.w3.org/2000/svg" xmlns:xlink="http://www.w3.org/1999/xlink">
<defs>
<symbol id="icon-arrow" viewBox="0 0 32 32">
<title>arrow</title>
<path d="M32 4.741l-4.741-4.741v23.704l-23.704-23.704-3.556 3.556 23.704 23.704h-23.704l4.741 4.741h27.259v-27.259z"></path>
</symbol>
<symbol id="icon-bag" viewBox="0 0 25 32">
<title>bag</title>
<path d="M23.333 7.778h-4.667v-1.556c0-1.65-0.656-3.233-1.822-4.4s-2.75-1.822-4.4-1.822-3.233 0.656-4.4 1.822c-1.167 1.167-1.822 2.75-1.822 4.4v1.556h-4.667c-0.413 0-0.808 0.164-1.1 0.456s-0.456 0.687-0.456 1.1v17.111c0 1.238 0.492 2.425 1.367 3.3s2.062 1.367 3.3 1.367h15.556c1.238 0 2.425-0.492 3.3-1.367s1.367-2.062 1.367-3.3v-17.111c0-0.413-0.164-0.808-0.456-1.1s-0.687-0.456-1.1-0.456zM9.333 6.222c0-0.825 0.328-1.616 0.911-2.2s1.375-0.911 2.2-0.911c0.825 0 1.617 0.328 2.2 0.911s0.911 1.375 0.911 2.2v1.556h-6.222v-1.556zM21.778 26.444c0 0.413-0.164 0.808-0.456 1.1s-0.687 0.456-1.1 0.456h-15.556c-0.413 0-0.808-0.164-1.1-0.456s-0.456-0.687-0.456-1.1v-15.556h3.111v1.556c0 0.413 0.164 0.808 0.456 1.1s0.687 0.456 1.1 0.456c0.413 0 0.808-0.164 1.1-0.456s0.456-0.687 0.456-1.1v-1.556h6.222v1.556c0 0.413 0.164 0.808 0.456 1.1s0.687 0.456 1.1 0.456c0.413 0 0.808-0.164 1.1-0.456s0.456-0.687 0.456-1.1v-1.556h3.111v15.556z"></path>
</symbol>
<symbol id="icon-facebook" viewBox="0 0 13 32">
<title>facebook</title>
<path d="M11.274 0.114c0.342 0 0.683 0 1.367 0v5.125c-0.342 0-1.025 0-1.708 0s-1.367 0-1.708 0.342c-0.342 0.342-0.342 0.683-0.342 1.48 0 0.683 0 1.139 0 1.822h3.758v4.327h-3.758v18.79h-5.808v-18.904h-3.075v-4.327h3.075v-1.48c0-2.505 0.342-4.327 1.025-5.125 1.025-1.48 3.075-2.164 6.149-2.164 0.342 0.114 0.683 0.114 1.025 0.114z"></path>
</symbol>
<symbol id="icon-instagram" viewBox="0 0 32 32">
<title>instagram</title>
<path d="M31.897 9.445c-0.020-1.343-0.268-2.675-0.745-3.931-0.833-2.145-2.53-3.841-4.679-4.671-1.242-0.467-2.555-0.717-3.884-0.745-1.71-0.076-2.252-0.098-6.591-0.098s-4.896 0-6.593 0.098c-1.327 0.028-2.641 0.279-3.883 0.745-2.148 0.83-3.847 2.526-4.679 4.671-0.467 1.24-0.72 2.551-0.745 3.876-0.076 1.708-0.1 2.249-0.1 6.582s0 4.886 0.1 6.582c0.027 1.327 0.277 2.636 0.745 3.88 0.833 2.143 2.53 3.839 4.681 4.669 1.237 0.483 2.55 0.756 3.883 0.798 1.711 0.076 2.253 0.099 6.593 0.099s4.896 0 6.593-0.099c1.327-0.027 2.641-0.277 3.885-0.743 2.148-0.832 3.845-2.528 4.679-4.671 0.467-1.242 0.718-2.551 0.744-3.88 0.076-1.707 0.1-2.248 0.1-6.582-0.004-4.332-0.004-4.882-0.103-6.58zM15.988 24.164c-4.538 0-8.215-3.67-8.215-8.201s3.677-8.201 8.215-8.201c4.535 0 8.215 3.671 8.215 8.201s-3.68 8.201-8.215 8.201zM24.53 9.37c-1.061 0-1.916-0.855-1.916-1.912s0.855-1.912 1.916-1.912c1.057 0 1.914 0.855 1.914 1.912s-0.857 1.912-1.914 1.912z"></path>
</symbol>
<symbol id="icon-logo" viewBox="0 0 32 32">
<title>logo</title>
<path d="M29.082 0.314h-4.009c-1.237 0-2.24 0.983-2.24 2.195v3.929c0 1.212 1.003 2.195 2.24 2.195h4.009c1.237 0 2.24-0.983 2.24-2.195v-3.929c0-1.212-1.003-2.195-2.24-2.195z"></path>
<path d="M6.73 23.040h-4.318c-1.332 0-2.412 0.983-2.412 2.195v3.929c0 1.213 1.080 2.195 2.412 2.195h4.318c1.332 0 2.412-0.983 2.412-2.195v-3.929c0-1.212-1.080-2.195-2.412-2.195z"></path>
<path d="M6.25 11.582h-4.009c-1.237 0-2.24 0.983-2.24 2.195v3.929c0 1.212 1.003 2.195 2.24 2.195h4.009c1.237 0 2.24-0.983 2.24-2.195v-3.929c0-1.212-1.003-2.195-2.24-2.195z"></path>
<path d="M17.766 22.978h-4.009c-1.237 0-2.24 0.983-2.24 2.195l-0 3.929c0 1.212 1.003 2.195 2.241 2.195h4.009c1.237 0 2.24-0.983 2.24-2.195v-3.929c0-1.213-1.003-2.195-2.24-2.195z"></path>
<path d="M6.25 0.086h-4.009c-1.237 0-2.24 0.983-2.24 2.195v3.929c0 1.212 1.003 2.195 2.24 2.195h4.009c1.237 0 2.24-0.983 2.24-2.195v-3.929c0-1.212-1.003-2.195-2.24-2.195z"></path>
<path d="M18.076 11.697h-4.009c-1.237 0-2.24 0.983-2.24 2.195v3.929c0 1.212 1.003 2.195 2.24 2.195h4.009c1.237 0 2.24-0.983 2.24-2.195v-3.929c0-1.212-1.003-2.195-2.24-2.195z"></path>
<path d="M29.333 22.978h-4.010c-1.237 0-2.24 0.983-2.24 2.195v3.929c0 1.212 1.003 2.195 2.24 2.195h4.009c1.237 0 2.24-0.983 2.24-2.195v-3.929c0-1.213-1.003-2.195-2.24-2.195z"></path>
<path d="M17.591 0.224h-4.009c-1.237 0-2.24 0.983-2.24 2.195v3.929c0 1.212 1.003 2.195 2.24 2.195h4.009c1.237 0 2.24-0.984 2.24-2.196v-3.929c0-1.212-1.003-2.195-2.24-2.195z"></path>
<path d="M29.044 11.926h-4.010c-1.237 0-2.24 0.983-2.24 2.195v3.929c0 1.212 1.003 2.195 2.24 2.195h4.009c1.237 0 2.24-0.983 2.24-2.195v-3.929c0-1.212-1.003-2.195-2.24-2.195z"></path>
</symbol>
<symbol id="icon-youtube" viewBox="0 0 45 32">
<title>youtube</title>
<path d="M35.984 0.257c-2.185-0.129-6.683-0.257-13.494-0.257h-0.9c-6.554 0-10.924 0.129-13.108 0.386-2.956 0.257-5.012 1.028-6.169 2.056-1.028 0.9-1.799 2.57-2.056 4.755-0.129 1.414-0.257 4.37-0.257 8.867v0.643c0 4.241 0.129 7.197 0.386 8.61 0.386 2.056 1.028 3.598 2.313 4.498 1.285 1.028 3.47 1.671 6.554 1.928 2.185 0.128 6.683 0.257 13.494 0.257h0.9c6.554 0 10.924-0.128 13.109-0.386 2.956-0.257 5.012-1.028 6.169-2.056 1.028-0.9 1.799-2.57 2.056-4.755 0.129-1.414 0.257-4.37 0.257-8.867v-0.643c0-4.241-0.128-7.197-0.385-8.61-0.386-2.056-1.028-3.598-2.313-4.498-1.285-1.028-3.47-1.671-6.554-1.928zM30.972 16.064l-14.137 8.482v-16.964l14.137 8.482z"></path>
</symbol>
<symbol id="icon-close" viewBox="0 0 32 32">
<title>close</title>
<path fill="none" stroke="#ae1332" style="stroke: var(--color1, #ae1332)" stroke-linejoin="round" stroke-linecap="round" stroke-miterlimit="4" stroke-width="3.4286" d="M24 8l-16 16"></path>
<path fill="none" stroke="#ae1332" style="stroke: var(--color1, #ae1332)" stroke-linejoin="round" stroke-linecap="round" stroke-miterlimit="4" stroke-width="3.4286" d="M8 8l16 16"></path>
</symbol>
</defs>
</svg>
